<svg width="134" height="86" viewBox="0 0 134 86" fill="none" xmlns="http://www.w3.org/2000/svg">
<g filter="url(#filter0_d_68_135)">
<path d="M9.61793 76.6387C11.1993 77.5561 12.982 78 14.9659 78C16.9211 78 18.7037 77.5561 20.3138 76.6387C21.8952 75.7508 23.1316 74.4782 24.0517 72.8801C24.9717 71.282 25.4318 69.5064 25.4318 67.4939C25.4318 65.5111 24.9717 63.7058 24.0517 62.1077C23.1316 60.5096 21.8952 59.2666 20.3138 58.3492C18.7037 57.4614 16.9211 56.9879 14.9659 56.9879C12.982 56.9879 11.1993 57.4614 9.61793 58.3788C8.00779 59.2962 6.77144 60.5392 5.85136 62.1373C4.93129 63.7354 4.5 65.5407 4.5 67.4939C4.5 69.4768 4.93129 71.2524 5.85136 72.8505C6.77144 74.4487 8.00779 75.7212 9.61793 76.6387ZM19.5375 75.4253C18.1574 76.2243 16.6335 76.6091 14.9659 76.6091C13.2695 76.6091 11.7456 76.2243 10.3655 75.4253C8.98537 74.6558 7.92154 73.5608 7.14523 72.1699C6.34016 70.7789 5.96637 69.2104 5.96637 67.4939C5.96637 65.7774 6.34016 64.2385 7.14523 62.8476C7.92154 61.4566 8.98537 60.3616 10.3655 59.5626C11.7456 58.7931 13.2695 58.3788 14.9659 58.3788C16.6335 58.3788 18.1574 58.7931 19.5375 59.5626C20.8889 60.3616 21.9527 61.4566 22.7578 62.8476C23.5341 64.2385 23.9367 65.7774 23.9367 67.4939C23.9367 69.2104 23.5341 70.7789 22.7578 72.1699C21.9527 73.5608 20.8889 74.6558 19.5375 75.4253Z" fill="#DFAF85"/>
<path d="M46.9067 57.1358H45.4404V75.1293L31.7542 57.1358H30.5178V77.852H31.9842V59.8585L45.6991 77.852H46.9067V57.1358Z" fill="#DFAF85"/>
<path d="M61.3481 57.1358V77.852H62.8145V57.1358H61.3481Z" fill="#DFAF85"/>
<path d="M87.1369 62.1669C86.2168 60.5984 84.9517 59.385 83.3415 58.4676C81.7314 57.5798 79.8625 57.1358 77.7923 57.1358H69.8279V58.4972H77.6773C79.5175 58.4972 81.1564 58.8819 82.594 59.6514C84.0029 60.4208 85.0955 61.4862 85.8718 62.818C86.6193 64.1793 87.0219 65.7479 87.0219 67.4939C87.0219 69.2696 86.6193 70.8085 85.8718 72.1699C85.0955 73.5312 84.0029 74.5966 82.594 75.3661C81.1564 76.1355 79.5175 76.4907 77.6773 76.4907H71.2943V67.4939H69.8279V77.852H77.7923C79.8625 77.852 81.7314 77.4081 83.3415 76.5203C84.9517 75.6324 86.2168 74.4191 87.1369 72.8505C88.0282 71.282 88.4882 69.5064 88.4882 67.4939C88.4882 65.5111 88.0282 63.7354 87.1369 62.1669Z" fill="#DFAF85"/>
<path d="M106.607 66.6653H93.5823V67.997H106.607V66.6653ZM106.607 57.1358H93.5823V58.4972H106.607V57.1358ZM93.5823 76.4907V77.852H106.607V76.4907H93.5823Z" fill="#DFAF85"/>
<path d="M120.205 57.1358H118.739L109.48 77.852H111.062L119.457 58.7931L127.882 77.852H129.463L120.205 57.1358Z" fill="#DFAF85"/>
<path d="M37.4104 21.4413H4.5V24.4377H37.4104V21.4413ZM47.9992 0H4.5V3.06304L50.0413 3.06304L47.9992 0ZM4.5 43.5484V46.6114H37.4104V43.5484H4.5Z" fill="#FFEDDF"/>
<path d="M68.1527 30.5638L88.64 0H84.7895L66.4091 27.4342L48.0287 0H43.9603L64.4476 30.5638V46.6114H68.1527V30.5638Z" fill="#FFEDDF"/>
<path d="M129.5 21.4413H96.5896V24.4377H129.5V21.4413ZM129.5 0H84.8466L82.8044 3.07604L129.5 3.06304V0ZM96.5896 43.5484V46.6114H129.5V43.5484H96.5896Z" fill="#FFEDDF"/>
</g>
<defs>
<filter id="filter0_d_68_135" x="0.5" y="0" width="133" height="86" filterUnits="userSpaceOnUse" color-interpolation-filters="sRGB">
<feFlood flood-opacity="0" result="BackgroundImageFix"/>
<feColorMatrix in="SourceAlpha" type="matrix" values="0 0 0 0 0 0 0 0 0 0 0 0 0 0 0 0 0 0 127 0" result="hardAlpha"/>
<feOffset dy="4"/>
<feGaussianBlur stdDeviation="2"/>
<feComposite in2="hardAlpha" operator="out"/>
<feColorMatrix type="matrix" values="0 0 0 0 0 0 0 0 0 0 0 0 0 0 0 0 0 0 0.25 0"/>
<feBlend mode="normal" in2="BackgroundImageFix" result="effect1_dropShadow_68_135"/>
<feBlend mode="normal" in="SourceGraphic" in2="effect1_dropShadow_68_135" result="shape"/>
</filter>
</defs>
</svg>
