<svg width="116" height="41" viewBox="0 0 116 41" fill="none" xmlns="http://www.w3.org/2000/svg">
<path d="M5.80078 11.6074V16.8984H9.5625V18.1289H5.80078V28.5703C5.80078 29.6133 5.94727 30.3164 6.24023 30.6797C6.54492 31.043 6.93164 31.2246 7.40039 31.2246C7.78711 31.2246 8.16211 31.1074 8.52539 30.873C8.88867 30.627 9.16992 30.2695 9.36914 29.8008H10.0547C9.64453 30.9492 9.06445 31.8164 8.31445 32.4023C7.56445 32.9766 6.79102 33.2637 5.99414 33.2637C5.45508 33.2637 4.92773 33.1172 4.41211 32.8242C3.89648 32.5195 3.51562 32.0918 3.26953 31.541C3.02344 30.9785 2.90039 30.1172 2.90039 28.957V18.1289H0.351562V17.5488C0.996094 17.291 1.65234 16.8574 2.32031 16.248C3 15.627 3.60352 14.8945 4.13086 14.0508C4.40039 13.6055 4.77539 12.791 5.25586 11.6074H5.80078ZM13.8516 22.9629C13.8398 25.3535 14.4199 27.2285 15.5918 28.5879C16.7637 29.9473 18.1406 30.627 19.7227 30.627C20.7773 30.627 21.6914 30.3398 22.4648 29.7656C23.25 29.1797 23.9062 28.1836 24.4336 26.7773L24.9785 27.1289C24.7324 28.7344 24.0176 30.1992 22.834 31.5234C21.6504 32.8359 20.168 33.4922 18.3867 33.4922C16.4531 33.4922 14.7949 32.7422 13.4121 31.2422C12.041 29.7305 11.3555 27.7031 11.3555 25.1602C11.3555 22.4062 12.0586 20.2617 13.4648 18.7266C14.8828 17.1797 16.6582 16.4062 18.791 16.4062C20.5957 16.4062 22.0781 17.0039 23.2383 18.1992C24.3984 19.3828 24.9785 20.9707 24.9785 22.9629H13.8516ZM13.8516 21.9434H21.3047C21.2461 20.9121 21.123 20.1855 20.9355 19.7637C20.6426 19.1074 20.2031 18.5918 19.6172 18.2168C19.043 17.8418 18.4395 17.6543 17.8066 17.6543C16.834 17.6543 15.9609 18.0352 15.1875 18.7969C14.4258 19.5469 13.9805 20.5957 13.8516 21.9434ZM31.4473 27.1289C30.4629 26.6484 29.707 25.9805 29.1797 25.125C28.6523 24.2578 28.3887 23.3027 28.3887 22.2598C28.3887 20.666 28.9863 19.2949 30.1816 18.1465C31.3887 16.998 32.9297 16.4238 34.8047 16.4238C36.3398 16.4238 37.6699 16.7988 38.7949 17.5488H42.2051C42.709 17.5488 43.002 17.5664 43.084 17.6016C43.166 17.625 43.2246 17.6719 43.2598 17.7422C43.3301 17.8477 43.3652 18.0352 43.3652 18.3047C43.3652 18.6094 43.3359 18.8203 43.2773 18.9375C43.2422 18.9961 43.1777 19.043 43.084 19.0781C43.002 19.1133 42.709 19.1309 42.2051 19.1309H40.1133C40.7695 19.9746 41.0977 21.0527 41.0977 22.3652C41.0977 23.8652 40.5234 25.1484 39.375 26.2148C38.2266 27.2812 36.6855 27.8145 34.752 27.8145C33.9551 27.8145 33.1406 27.6973 32.3086 27.4629C31.793 27.9082 31.4414 28.3008 31.2539 28.6406C31.0781 28.9688 30.9902 29.25 30.9902 29.4844C30.9902 29.6836 31.084 29.877 31.2715 30.0645C31.4707 30.252 31.8516 30.3867 32.4141 30.4688C32.7422 30.5156 33.5625 30.5566 34.875 30.5918C37.2891 30.6504 38.8535 30.7324 39.5684 30.8379C40.6582 30.9902 41.5254 31.3945 42.1699 32.0508C42.8262 32.707 43.1543 33.5156 43.1543 34.4766C43.1543 35.8008 42.5332 37.043 41.291 38.2031C39.4629 39.9141 37.0781 40.7695 34.1367 40.7695C31.875 40.7695 29.9648 40.2598 28.4062 39.2402C27.5273 38.6543 27.0879 38.0449 27.0879 37.4121C27.0879 37.1309 27.1523 36.8496 27.2812 36.5684C27.4805 36.1348 27.8906 35.5312 28.5117 34.7578C28.5938 34.6523 29.1914 34.0195 30.3047 32.8594C29.6953 32.4961 29.2617 32.1738 29.0039 31.8926C28.7578 31.5996 28.6348 31.2715 28.6348 30.9082C28.6348 30.498 28.7988 30.0176 29.127 29.4668C29.4668 28.916 30.2402 28.1367 31.4473 27.1289ZM34.5059 17.2676C33.6387 17.2676 32.9121 17.6133 32.3262 18.3047C31.7402 18.9961 31.4473 20.0566 31.4473 21.4863C31.4473 23.3379 31.8457 24.7734 32.6426 25.793C33.252 26.5664 34.0254 26.9531 34.9629 26.9531C35.8535 26.9531 36.5859 26.6191 37.1602 25.9512C37.7344 25.2832 38.0215 24.2344 38.0215 22.8047C38.0215 20.9414 37.6172 19.4824 36.8086 18.4277C36.2109 17.6543 35.4434 17.2676 34.5059 17.2676ZM31.2715 33C30.7207 33.5977 30.3047 34.1543 30.0234 34.6699C29.7422 35.1855 29.6016 35.6602 29.6016 36.0938C29.6016 36.6562 29.9414 37.1484 30.6211 37.5703C31.793 38.2969 33.4863 38.6602 35.7012 38.6602C37.8105 38.6602 39.3633 38.2852 40.3594 37.5352C41.3672 36.7969 41.8711 36.0059 41.8711 35.1621C41.8711 34.5527 41.5723 34.1191 40.9746 33.8613C40.3652 33.6035 39.1582 33.4512 37.3535 33.4043C34.7168 33.334 32.6895 33.1992 31.2715 33ZM47.8477 22.9629C47.8359 25.3535 48.416 27.2285 49.5879 28.5879C50.7598 29.9473 52.1367 30.627 53.7188 30.627C54.7734 30.627 55.6875 30.3398 56.4609 29.7656C57.2461 29.1797 57.9023 28.1836 58.4297 26.7773L58.9746 27.1289C58.7285 28.7344 58.0137 30.1992 56.8301 31.5234C55.6465 32.8359 54.1641 33.4922 52.3828 33.4922C50.4492 33.4922 48.791 32.7422 47.4082 31.2422C46.0371 29.7305 45.3516 27.7031 45.3516 25.1602C45.3516 22.4062 46.0547 20.2617 47.4609 18.7266C48.8789 17.1797 50.6543 16.4062 52.7871 16.4062C54.5918 16.4062 56.0742 17.0039 57.2344 18.1992C58.3945 19.3828 58.9746 20.9707 58.9746 22.9629H47.8477ZM47.8477 21.9434H55.3008C55.2422 20.9121 55.1191 20.1855 54.9316 19.7637C54.6387 19.1074 54.1992 18.5918 53.6133 18.2168C53.0391 17.8418 52.4355 17.6543 51.8027 17.6543C50.8301 17.6543 49.957 18.0352 49.1836 18.7969C48.4219 19.5469 47.9766 20.5957 47.8477 21.9434ZM65.8125 11.6074V16.8984H69.5742V18.1289H65.8125V28.5703C65.8125 29.6133 65.959 30.3164 66.252 30.6797C66.5566 31.043 66.9434 31.2246 67.4121 31.2246C67.7988 31.2246 68.1738 31.1074 68.5371 30.873C68.9004 30.627 69.1816 30.2695 69.3809 29.8008H70.0664C69.6562 30.9492 69.0762 31.8164 68.3262 32.4023C67.5762 32.9766 66.8027 33.2637 66.0059 33.2637C65.4668 33.2637 64.9395 33.1172 64.4238 32.8242C63.9082 32.5195 63.5273 32.0918 63.2812 31.541C63.0352 30.9785 62.9121 30.1172 62.9121 28.957V18.1289H60.3633V17.5488C61.0078 17.291 61.6641 16.8574 62.332 16.248C63.0117 15.627 63.6152 14.8945 64.1426 14.0508C64.4121 13.6055 64.7871 12.791 65.2676 11.6074H65.8125ZM73.8633 22.9629C73.8516 25.3535 74.4316 27.2285 75.6035 28.5879C76.7754 29.9473 78.1523 30.627 79.7344 30.627C80.7891 30.627 81.7031 30.3398 82.4766 29.7656C83.2617 29.1797 83.918 28.1836 84.4453 26.7773L84.9902 27.1289C84.7441 28.7344 84.0293 30.1992 82.8457 31.5234C81.6621 32.8359 80.1797 33.4922 78.3984 33.4922C76.4648 33.4922 74.8066 32.7422 73.4238 31.2422C72.0527 29.7305 71.3672 27.7031 71.3672 25.1602C71.3672 22.4062 72.0703 20.2617 73.4766 18.7266C74.8945 17.1797 76.6699 16.4062 78.8027 16.4062C80.6074 16.4062 82.0898 17.0039 83.25 18.1992C84.4102 19.3828 84.9902 20.9707 84.9902 22.9629H73.8633ZM73.8633 21.9434H81.3164C81.2578 20.9121 81.1348 20.1855 80.9473 19.7637C80.6543 19.1074 80.2148 18.5918 79.6289 18.2168C79.0547 17.8418 78.4512 17.6543 77.8184 17.6543C76.8457 17.6543 75.9727 18.0352 75.1992 18.7969C74.4375 19.5469 73.9922 20.5957 73.8633 21.9434ZM100.828 26.8828C100.395 29.0039 99.5449 30.6387 98.2793 31.7871C97.0137 32.9238 95.6133 33.4922 94.0781 33.4922C92.25 33.4922 90.6562 32.7246 89.2969 31.1895C87.9375 29.6543 87.2578 27.5801 87.2578 24.9668C87.2578 22.4355 88.0078 20.3789 89.5078 18.7969C91.0195 17.2148 92.8301 16.4238 94.9395 16.4238C96.5215 16.4238 97.8223 16.8457 98.8418 17.6895C99.8613 18.5215 100.371 19.3887 100.371 20.291C100.371 20.7363 100.225 21.0996 99.9316 21.3809C99.6504 21.6504 99.252 21.7852 98.7363 21.7852C98.0449 21.7852 97.5234 21.5625 97.1719 21.1172C96.9727 20.8711 96.8379 20.4023 96.7676 19.7109C96.709 19.0195 96.4746 18.4922 96.0645 18.1289C95.6543 17.7773 95.0859 17.6016 94.3594 17.6016C93.1875 17.6016 92.2441 18.0352 91.5293 18.9023C90.5801 20.0508 90.1055 21.5684 90.1055 23.4551C90.1055 25.377 90.5742 27.0762 91.5117 28.5527C92.4609 30.0176 93.7383 30.75 95.3438 30.75C96.4922 30.75 97.5234 30.3574 98.4375 29.5723C99.082 29.0332 99.709 28.0547 100.318 26.6367L100.828 26.8828Z" fill="#2D316A"/>
<path d="M109.078 9.16406C110.01 9.16406 110.919 9.40365 111.805 9.88281C112.69 10.3568 113.38 11.0391 113.875 11.9297C114.375 12.8151 114.625 13.7396 114.625 14.7031C114.625 15.6615 114.38 16.5807 113.891 17.4609C113.401 18.3411 112.716 19.026 111.836 19.5156C110.956 20 110.036 20.2422 109.078 20.2422C108.12 20.2422 107.201 20 106.32 19.5156C105.445 19.026 104.763 18.3411 104.273 17.4609C103.784 16.5807 103.539 15.6615 103.539 14.7031C103.539 13.7396 103.786 12.8151 104.281 11.9297C104.781 11.0391 105.474 10.3568 106.359 9.88281C107.245 9.40365 108.151 9.16406 109.078 9.16406ZM109.078 9.64062C108.229 9.64062 107.401 9.85938 106.594 10.2969C105.786 10.7344 105.156 11.3594 104.703 12.1719C104.25 12.9792 104.023 13.8229 104.023 14.7031C104.023 15.5781 104.245 16.4167 104.688 17.2188C105.135 18.0208 105.76 18.6458 106.562 19.0938C107.365 19.5417 108.203 19.7656 109.078 19.7656C109.953 19.7656 110.792 19.5417 111.594 19.0938C112.401 18.6458 113.026 18.0208 113.469 17.2188C113.917 16.4167 114.141 15.5781 114.141 14.7031C114.141 13.8229 113.914 12.9792 113.461 12.1719C113.008 11.3594 112.378 10.7344 111.57 10.2969C110.763 9.85938 109.932 9.64062 109.078 9.64062ZM106.016 11.2969H109.031C109.786 11.2969 110.362 11.4688 110.758 11.8125C111.154 12.151 111.352 12.5625 111.352 13.0469C111.352 13.4427 111.216 13.7917 110.945 14.0938C110.68 14.3906 110.237 14.6198 109.617 14.7812L111.25 17.1094C111.448 17.3854 111.625 17.5755 111.781 17.6797C111.88 17.7422 112.018 17.7812 112.195 17.7969V18.0547H110.758L108.461 14.8906H107.867V17.3047C107.898 17.4766 107.971 17.6016 108.086 17.6797C108.206 17.7578 108.44 17.7969 108.789 17.7969V18.0547H105.922V17.7969C106.172 17.7969 106.349 17.7682 106.453 17.7109C106.557 17.6484 106.633 17.5599 106.68 17.4453C106.716 17.362 106.734 17.1198 106.734 16.7188V12.6328C106.734 12.2474 106.727 12.0208 106.711 11.9531C106.674 11.8333 106.607 11.7422 106.508 11.6797C106.414 11.612 106.25 11.5781 106.016 11.5781V11.2969ZM107.867 14.5547C108.482 14.5547 108.93 14.4948 109.211 14.375C109.497 14.2552 109.716 14.0885 109.867 13.875C110.018 13.6562 110.094 13.4089 110.094 13.1328C110.094 12.7109 109.945 12.3568 109.648 12.0703C109.357 11.7839 108.982 11.6406 108.523 11.6406C108.326 11.6406 108.107 11.6823 107.867 11.7656V14.5547Z" fill="#2D316A"/>
</svg>
