<svg width="51" height="49" viewBox="0 0 51 49" fill="none" xmlns="http://www.w3.org/2000/svg">
<g clip-path="url(#clip0_15_232)">
<path d="M0.423264 3.42693C0.423264 1.45665 2.07242 -0.141533 4.10685 -0.141533H46.5866C48.6209 -0.141533 50.2702 1.45665 50.2702 3.42693V46.1054C50.2702 48.0763 48.6209 49.6738 46.5866 49.6738H4.10685C2.07242 49.6738 0.423264 48.0763 0.423264 46.1054V3.42693Z" fill="#006699"/>
<path fill-rule="evenodd" clip-rule="evenodd" d="M15.5334 41.5591V19.0647H8.00445V41.5591H15.5334ZM11.7689 15.9934C14.3944 15.9934 16.0285 14.2661 16.0285 12.1075C15.9796 9.90022 14.3944 8.22082 11.8187 8.22082C9.24327 8.22082 7.55939 9.90022 7.55939 12.1075C7.55939 14.2661 9.19319 15.9934 11.7198 15.9934H11.7689Z" fill="white"/>
<path fill-rule="evenodd" clip-rule="evenodd" d="M19.6994 41.5591H27.2282V28.9972C27.2282 28.325 27.2772 27.6533 27.476 27.1727C28.0202 25.8295 29.2591 24.4383 31.3389 24.4383C34.0633 24.4383 35.1531 26.5011 35.1531 29.5251V41.5591H42.6814V28.6611C42.6814 21.7518 38.967 18.5368 34.0136 18.5368C29.9519 18.5368 28.1688 20.7913 27.1782 22.3269H27.2284V19.0647H19.6996C19.7984 21.1754 19.6994 41.5591 19.6994 41.5591Z" fill="white"/>
</g>
<defs>
<clipPath id="clip0_15_232">
<rect width="50" height="49" fill="white" transform="translate(0.5)"/>
</clipPath>
</defs>
</svg>
