<svg width="150" height="60" viewBox="0 0 150 60" fill="none" xmlns="http://www.w3.org/2000/svg">
<rect width="150" height="60" fill="white"/>
<g clip-path="url(#clip0_148_109)">
<path d="M28.0297 44.1649C28.7053 44.0802 29.3857 44.0399 30.0665 44.0443C31.0702 44.0443 31.7716 44.1739 32.2537 44.5021C32.4527 44.6344 32.6146 44.8161 32.7235 45.0296C32.8325 45.2431 32.8849 45.4813 32.8759 45.7212C32.8527 46.0566 32.7247 46.376 32.5103 46.6337C32.296 46.8915 32.0063 47.0743 31.6825 47.1562V47.1817C31.9096 47.2752 32.1104 47.4233 32.2676 47.6131C32.4247 47.8028 32.5333 48.0285 32.5839 48.2703C32.7372 48.8278 32.9213 49.3763 33.1352 49.9131H31.5704C31.3636 49.4799 31.2052 49.0249 31.0981 48.5565C30.9169 47.831 30.6259 47.6317 30.0042 47.6231H29.5422V49.9144H28.0272L28.0297 44.1649ZM29.5449 46.6724H30.1459C30.9084 46.6724 31.3595 46.3438 31.3595 45.8341C31.3595 45.298 30.9384 45.0295 30.2365 45.0217C30.0048 45.0183 29.773 45.0327 29.5435 45.065L29.5449 46.6724ZM38.0055 46.3784H35.5153V45.1679H38.1539V44.0871H33.98V49.9127H38.2944V48.8319H35.5153V47.4484H38.0055V46.3784ZM39.954 49.9136H44.1786V48.8068H41.4897V44.0875H39.954V49.9136ZM46.6178 44.0879H45.0827V49.9131H46.617L46.6178 44.0879ZM50.1306 48.4177L49.6497 49.9131H48.0647L50.1306 44.0875H52.1382L54.2349 49.9131H52.5893L52.0677 48.4177H50.1306ZM51.8478 47.4329L51.4267 46.1964C51.3065 45.8505 51.1859 45.4182 51.0863 45.0723H51.0657C50.9653 45.4182 50.8652 45.8592 50.7548 46.1964L50.353 47.4329H51.8478ZM55.7547 44.1653C56.4094 44.0789 57.0693 44.0386 57.7296 44.0447C58.4113 43.9919 59.0956 44.1043 59.7254 44.3724C59.9578 44.4606 60.1589 44.6161 60.3036 44.8193C60.4483 45.0225 60.5301 45.2643 60.5386 45.5142C60.5386 46.033 60.1873 46.5167 59.4248 46.7593V46.7761C60.1976 46.9573 60.7696 47.4583 60.7696 48.2106C60.7645 48.4594 60.6975 48.703 60.5748 48.919C60.4521 49.135 60.2775 49.3166 60.0671 49.4471C59.5743 49.7843 58.7526 49.9745 57.408 49.9745C56.855 49.9786 56.3022 49.9497 55.7526 49.888L55.7547 44.1653ZM57.2696 46.3953H57.7715C58.5739 46.3953 59.0058 46.1103 59.0058 45.6784C59.0058 45.237 58.6143 45.004 57.9218 45.004C57.7039 45.0014 57.4861 45.0126 57.2696 45.0377V46.3953ZM57.2696 48.9806C57.4208 48.997 57.6012 48.997 57.8618 48.997C58.5539 48.997 59.1659 48.7726 59.1659 48.1583C59.1659 47.5716 58.5539 47.3369 57.7922 47.3369H57.2705L57.2696 48.9806ZM61.8171 49.9136H66.0407V48.8068H63.3518V44.0875H61.8171V49.9136ZM70.9688 46.3784H68.4805V45.1679H71.1187V44.0871H66.9452V49.9127H71.26V48.8319H68.4805V47.4484H70.9684L70.9688 46.3784ZM75.7592 44.1653C76.2413 44.0817 76.7297 44.0414 77.2188 44.0447C77.8164 43.9911 78.4146 44.1401 78.9185 44.4679C79.0835 44.5818 79.2171 44.7358 79.3072 44.9156C79.3972 45.0954 79.4407 45.2952 79.4336 45.4965C79.4169 45.7942 79.3065 46.0789 79.1181 46.3091C78.9297 46.5392 78.6732 46.7028 78.3861 46.7761V46.793C78.6698 46.8341 78.9358 46.9568 79.152 47.1464C79.3683 47.3359 79.5257 47.5843 79.6052 47.8617C79.6848 48.139 79.683 48.4336 79.6004 48.7101C79.5178 48.9865 79.358 49.2331 79.1397 49.4203C78.7069 49.7929 78.0092 49.9654 76.9977 49.9654C76.5834 49.9682 76.1692 49.9452 75.7577 49.8967L75.7592 44.1653ZM76.5585 46.5513H77.2853C78.1298 46.5513 78.6261 46.1363 78.6261 45.5743C78.6261 44.8916 78.0749 44.6231 77.2656 44.6231C77.0288 44.6175 76.792 44.6347 76.5585 44.6746V46.5513ZM76.5585 49.3433C76.7809 49.3714 77.0051 49.383 77.2291 49.3779C78.0568 49.3779 78.8177 49.093 78.8177 48.2452C78.8177 47.4501 78.0908 47.1211 77.2188 47.1211H76.5568L76.5585 49.3433ZM83.4366 49.9131V47.4333L85.7033 44.0879H84.7086L83.7358 45.6953C83.4752 46.1359 83.2451 46.5167 83.0532 46.8967H83.0335C82.8223 46.4899 82.6231 46.1359 82.3616 45.6953L81.4085 44.0879H80.4155L82.5526 47.4411V49.9131H83.4366ZM89.4789 44.1657C89.9964 44.0853 90.5191 44.0448 91.0427 44.0447C92.0997 44.0447 92.8523 44.2954 93.3512 44.7706C93.626 45.041 93.84 45.3678 93.9786 45.7287C94.1172 46.0896 94.1771 46.4763 94.1544 46.8626C94.1744 47.2759 94.1123 47.6891 93.9714 48.0778C93.8306 48.4665 93.6141 48.823 93.3346 49.1263C92.8018 49.6715 91.9225 49.965 90.8149 49.965C90.3686 49.968 89.9226 49.9453 89.4789 49.8971V44.1657ZM90.2147 49.3174C90.4612 49.3517 90.7099 49.3662 90.9587 49.3606C92.5313 49.3606 93.3851 48.4618 93.3851 46.8881C93.3933 45.5146 92.6325 44.64 91.0775 44.64C90.788 44.6353 90.4989 44.6611 90.2147 44.7169V49.3174ZM98.8174 46.5971H96.4178V44.9167H98.9564V44.3413H95.621V49.6589H99.0924V49.0835H96.4178V47.1657H98.8174V46.5971ZM100.247 49.6278C100.733 49.8799 101.273 50.0079 101.82 50.0004C103.275 50.0004 103.981 49.2223 103.981 48.3235C103.981 47.4674 103.45 46.9914 102.408 46.6118C101.556 46.3006 101.18 46.033 101.18 45.4878C101.18 45.0905 101.501 44.6162 102.343 44.6162C102.749 44.6138 103.151 44.7083 103.514 44.8921L103.733 44.2781C103.308 44.0749 102.84 43.9772 102.37 43.9932C101.171 43.9932 100.375 44.6677 100.375 45.5747C100.375 46.3961 100.997 46.889 102.003 47.2262C102.837 47.5288 103.167 47.8401 103.167 48.3844C103.167 48.9728 102.691 49.3788 101.876 49.3788C101.375 49.3757 100.884 49.2448 100.447 48.9983L100.247 49.6278ZM106.663 44.0879H105.788V49.9131H106.661L106.663 44.0879ZM112.722 46.8548H110.64V47.4601H111.926V49.198C111.576 49.3196 111.207 49.3723 110.837 49.3532C109.364 49.3532 108.398 48.4808 108.398 47.0018C108.398 45.5414 109.403 44.6599 110.941 44.6599C111.418 44.6477 111.894 44.733 112.338 44.9106L112.534 44.2971C112.031 44.1073 111.496 44.0164 110.958 44.0291C108.839 44.0291 107.545 45.2997 107.536 47.0368C107.522 47.4406 107.594 47.8427 107.745 48.2166C107.897 48.5906 108.126 48.9279 108.417 49.2063C109.082 49.7507 109.925 50.0254 110.781 49.9763C111.441 49.9713 112.096 49.8632 112.722 49.6559V46.8548ZM115.25 49.9148V47.4264C115.25 46.4579 115.231 45.758 115.185 45.0226L115.212 45.0144C115.556 45.6864 115.942 46.3362 116.367 46.9599L118.329 49.9157H119.136V44.0875H118.384V46.525C118.384 47.4328 118.403 48.141 118.476 48.9188L118.458 48.9278C118.131 48.2721 117.76 47.6396 117.348 47.0347L115.367 44.0875H114.496V49.9127L115.25 49.9148ZM106.754 23.921C106.754 17.3704 110.998 15.3419 114.375 15.3419C116.822 15.3419 121.593 16.0907 121.593 23.4221C121.593 29.2871 118.186 32.2827 113.908 32.2827C109.51 32.2827 106.752 29.5997 106.752 23.921M116.263 23.8899C116.263 20.7079 115.736 19.0854 114.156 19.0854C112.701 19.0854 112.05 20.7715 112.05 23.3287C112.05 26.0429 112.297 28.4761 114.156 28.4761C115.675 28.4761 116.263 26.9478 116.263 23.8899ZM82.8249 32.2823C80.6642 32.2823 78.6076 30.7752 78.0735 27.7273C76.719 19.9916 80.7813 15.4712 86.6663 15.4712C88.6727 15.4998 90.6649 15.8157 92.5829 16.4093C92.4241 17.6313 92.3287 18.8608 92.2969 20.0928L92.4257 27.0909C92.4789 29.1016 92.7072 29.8383 93.5924 30.9092L89.8338 32.4167C89.1233 31.7795 88.3038 30.7968 88.2295 29.9931C88.163 29.4241 87.9646 27.3256 87.9646 27.3256C87.9646 27.3256 87.7221 32.2823 82.8258 32.2823M86.947 18.5852C86.6905 18.5394 86.4307 18.517 86.1702 18.5182C82.9125 18.5182 82.5384 23.9768 83.0545 26.924C83.2185 27.8621 83.4409 28.3641 84.0372 28.3641C85.235 28.3641 86.7024 24.7805 86.9003 20.0262L86.947 18.5852ZM104.143 25.9863C102.918 27.4817 101.675 28.0295 100.678 28.0295C99.4481 28.0295 98.9371 26.8241 98.6855 25.384C98.2511 22.9055 98.7894 19.523 101.218 19.523C102.443 19.5335 103.634 19.9187 104.636 20.6276L105.995 17.1793C104.285 16.1356 102.34 15.5479 100.342 15.4716C94.7568 15.4716 92.6253 20.9622 93.5002 25.953C94.1206 29.5028 96.2376 32.2827 100.259 32.2827C103.286 32.2827 105.408 30.5404 106.871 28.8332L104.143 25.9863ZM77.9083 20.3604C77.3768 17.0448 75.8605 15.4712 73.6328 15.4712C69.5779 15.4712 68.1623 19.8545 68.1623 19.8545C68.3922 18.5501 68.5325 17.2312 68.5822 15.9074H63.4623L63.4734 23.2211L60.7497 25.621C59.5257 26.7926 56.8353 28.1972 55.6375 28.1972C54.4075 28.1972 53.9971 26.9906 53.7485 25.384C57.1157 25.049 61.9849 23.8095 61.2186 19.4222C60.8726 17.446 59.297 15.4716 55.805 15.4716C50.8846 15.4716 47.702 19.8909 48.8225 26.2885C49.4029 29.6036 51.3984 32.2827 55.0579 32.2827C57.784 32.2827 59.9392 31.1098 62.0175 28.7324L63.4807 26.9084L63.4983 38.5113H68.6522L68.6346 32.1811C69.0804 32.2458 69.5302 32.2796 69.9806 32.2823C75.4965 32.2801 79.1104 27.86 77.9071 20.3582L77.9083 20.3604ZM55.57 18.887C55.9064 18.882 56.2329 19.0024 56.4865 19.2251C56.7401 19.4477 56.9029 19.7569 56.9439 20.0932C57.1663 21.3655 56.202 22.5039 53.4106 22.704C53.3591 21.2626 53.7738 18.8848 55.5687 18.8848L55.57 18.887ZM69.4895 29.4358C69.2183 29.4425 68.947 29.42 68.6805 29.3688L68.6981 28.0286C68.6453 24.1761 70.1058 20.4256 71.6346 20.4256C72.1669 20.4256 72.6865 20.7616 72.9167 22.2008C73.4258 25.3814 72.513 29.4337 69.488 29.4337L69.4895 29.4358ZM123.374 15.5243C123.811 15.5252 124.229 15.7005 124.537 16.0118C124.845 16.323 125.018 16.7448 125.018 17.1844C125.017 17.6239 124.844 18.0453 124.535 18.356C124.226 18.6667 123.808 18.8412 123.371 18.8412C122.935 18.8412 122.516 18.6667 122.207 18.356C121.898 18.0453 121.725 17.6239 121.724 17.1844C121.724 16.7448 121.897 16.323 122.205 16.0118C122.513 15.7005 122.931 15.5252 123.368 15.5243H123.374ZM123.368 15.7837C123.009 15.8035 122.671 15.9613 122.424 16.2246C122.177 16.4878 122.04 16.8365 122.041 17.1986C122.042 17.5607 122.18 17.9087 122.428 18.1708C122.677 18.4329 123.015 18.5891 123.374 18.6073C123.732 18.5863 124.068 18.4285 124.314 18.166C124.56 17.9036 124.697 17.5564 124.697 17.1955C124.697 16.8346 124.56 16.4874 124.314 16.225C124.068 15.9625 123.732 15.8046 123.374 15.7837H123.368ZM123.058 18.1615H122.763V16.3025C122.935 16.2746 123.11 16.2601 123.285 16.2593C123.486 16.245 123.686 16.2936 123.858 16.3985C123.917 16.4439 123.963 16.5033 123.993 16.5712C124.023 16.6391 124.036 16.7135 124.03 16.7876C124.03 16.893 123.994 16.9951 123.928 17.0771C123.862 17.1591 123.771 17.2162 123.669 17.2389V17.2532C123.832 17.2822 123.942 17.4313 123.979 17.7063C123.993 17.8648 124.032 18.02 124.096 18.1654H123.788C123.717 18.016 123.674 17.8548 123.662 17.6899C123.66 17.6412 123.647 17.5935 123.625 17.55C123.604 17.5064 123.573 17.468 123.535 17.4371C123.498 17.4063 123.454 17.3837 123.408 17.3709C123.361 17.358 123.312 17.3552 123.264 17.3626H123.06L123.058 18.1615ZM123.058 17.1322H123.273C123.516 17.1322 123.722 17.0422 123.722 16.8131C123.722 16.6493 123.603 16.4867 123.273 16.4867C123.201 16.4864 123.129 16.4914 123.058 16.5014V17.1322ZM26.2412 9.99872L25 31.8772H30.2927L30.9465 18.983L36.3396 26.3844L42.0538 18.7858L42.7072 31.8798H48.002L46.891 10.0013H41.926L36.6002 18.1602L31.2767 10.0013L26.2412 9.99872ZM120.804 44.0075C120.99 44.008 121.168 44.0826 121.299 44.215C121.43 44.3473 121.503 44.5266 121.503 44.7135C121.503 44.9004 121.429 45.0795 121.297 45.2115C121.166 45.3436 120.988 45.4178 120.803 45.4178C120.617 45.4178 120.439 45.3436 120.308 45.2115C120.176 45.0795 120.103 44.9004 120.102 44.7135C120.102 44.5266 120.176 44.3473 120.307 44.215C120.438 44.0826 120.615 44.008 120.801 44.0075H120.804ZM120.801 44.1182C120.651 44.1186 120.507 44.179 120.401 44.2861C120.295 44.3932 120.236 44.5382 120.236 44.6893C120.237 44.8404 120.296 44.9852 120.403 45.0919C120.509 45.1987 120.653 45.2587 120.803 45.2587C120.953 45.2587 121.097 45.1987 121.203 45.0919C121.309 44.9852 121.369 44.8404 121.369 44.6893C121.369 44.5382 121.31 44.3932 121.204 44.2861C121.098 44.179 120.954 44.1186 120.804 44.1182H120.801ZM120.67 45.1298H120.544V44.3387C120.618 44.3266 120.692 44.3204 120.767 44.3201C120.852 44.3137 120.937 44.3345 121.01 44.3797C121.035 44.3989 121.054 44.4238 121.067 44.4524C121.08 44.481 121.085 44.5124 121.083 44.5436C121.082 44.5884 121.067 44.6318 121.039 44.6668C121.012 44.7017 120.973 44.7261 120.929 44.736V44.742C120.999 44.7541 121.045 44.8177 121.061 44.9344C121.068 45.0017 121.084 45.0676 121.11 45.1298H120.982C120.951 45.0669 120.933 44.9984 120.928 44.9284C120.927 44.9077 120.922 44.8874 120.913 44.8689C120.903 44.8504 120.89 44.8341 120.874 44.821C120.858 44.8079 120.84 44.7982 120.82 44.7926C120.801 44.7871 120.78 44.7857 120.759 44.7887H120.671L120.67 45.1298ZM120.67 44.6919H120.76C120.864 44.6919 120.952 44.6538 120.952 44.5561C120.952 44.4869 120.901 44.4178 120.76 44.4178C120.73 44.4175 120.7 44.4194 120.67 44.4234V44.6919Z" fill="#C00020"/>
</g>
<defs>
<clipPath id="clip0_148_109">
<rect width="100" height="40" fill="white" transform="translate(25 10)"/>
</clipPath>
</defs>
</svg>
