<svg width="51" height="45" viewBox="0 0 51 45" fill="none" xmlns="http://www.w3.org/2000/svg">
<path d="M11.81 4.15529C17.3513 8.29968 23.3117 16.7028 25.5 21.2124C27.6885 16.7031 33.6485 8.2996 39.19 4.15529C43.1883 1.16487 49.6667 -1.14895 49.6667 6.21375C49.6667 7.68418 48.8204 18.5661 48.3241 20.3328C46.5988 26.4748 40.3121 28.0414 34.7199 27.0932C44.4949 28.7506 46.9816 34.2405 41.6113 39.7304C31.4122 50.1567 26.9522 37.1144 25.8088 33.7724C25.5993 33.1598 25.5013 32.8732 25.4998 33.1169C25.4984 32.8732 25.4004 33.1598 25.1909 33.7724C24.048 37.1144 19.5881 50.157 9.38837 39.7304C4.01804 34.2405 6.50462 28.7503 16.2798 27.0932C10.6875 28.0414 4.40062 26.4748 2.67562 20.3328C2.17927 18.566 1.33304 7.68401 1.33304 6.21375C1.33304 -1.14895 7.81154 1.16487 11.8097 4.15529H11.81Z" fill="#1185FE"/>
</svg>
