<svg width="51" height="51" viewBox="0 0 51 51" fill="none" xmlns="http://www.w3.org/2000/svg">
<g clip-path="url(#clip0_15_239)">
<path d="M25.5335 12.6652C18.4464 12.6429 12.6875 18.3795 12.6652 25.4665C12.6429 32.5536 18.3795 38.3125 25.4665 38.3348C32.5536 38.3571 38.3125 32.6205 38.3348 25.5335C38.3571 18.4464 32.6205 12.6875 25.5335 12.6652ZM25.4665 17.1741C30.0647 17.1518 33.8036 20.8683 33.8259 25.4665C33.8482 30.0647 30.1317 33.8036 25.5335 33.8259C20.9353 33.8482 17.1964 30.1317 17.1741 25.5335C17.1518 20.9353 20.8683 17.1964 25.4665 17.1741ZM35.8906 12.1406C35.8906 10.4888 37.2299 9.14955 38.8817 9.14955C40.5335 9.14955 41.8728 10.4888 41.8728 12.1406C41.8728 13.7924 40.5335 15.1317 38.8817 15.1317C37.2299 15.1317 35.8906 13.7924 35.8906 12.1406ZM50.3661 15.1763C50.1763 11.1696 49.2612 7.62054 46.3259 4.69643C43.4018 1.77232 39.8527 0.857143 35.846 0.65625C31.7165 0.421875 19.3393 0.421875 15.2098 0.65625C11.2143 0.845982 7.66517 1.76116 4.72991 4.68527C1.79464 7.60938 0.890621 11.1585 0.689728 15.1652C0.455353 19.2946 0.455353 31.6719 0.689728 35.8013C0.87946 39.808 1.79464 43.3571 4.72991 46.2812C7.66517 49.2054 11.2031 50.1205 15.2098 50.3214C19.3393 50.5558 31.7165 50.5558 35.846 50.3214C39.8527 50.1317 43.4018 49.2165 46.3259 46.2812C49.25 43.3571 50.1652 39.808 50.3661 35.8013C50.6004 31.6719 50.6004 19.3058 50.3661 15.1763ZM45.0312 40.2321C44.1607 42.4196 42.4754 44.1049 40.2768 44.9866C36.9844 46.2924 29.1719 45.9911 25.5335 45.9911C21.8951 45.9911 14.0714 46.2812 10.7902 44.9866C8.60267 44.1161 6.91741 42.4308 6.03571 40.2321C4.72991 36.9397 5.03125 29.1272 5.03125 25.4888C5.03125 21.8504 4.74107 14.0268 6.03571 10.7455C6.90625 8.55804 8.59151 6.87277 10.7902 5.99107C14.0826 4.68527 21.8951 4.98661 25.5335 4.98661C29.1719 4.98661 36.9955 4.69643 40.2768 5.99107C42.4643 6.86161 44.1496 8.54688 45.0312 10.7455C46.3371 14.0379 46.0357 21.8504 46.0357 25.4888C46.0357 29.1272 46.3371 36.9509 45.0312 40.2321Z" fill="white"/>
</g>
<defs>
<clipPath id="clip0_15_239">
<rect width="50" height="50" fill="white" transform="translate(0.5 0.5)"/>
</clipPath>
</defs>
</svg>
